<?xml version="1.0" encoding="UTF-8" standalone="no"?>
<!DOCTYPE svg PUBLIC "-//W3C//DTD SVG 1.1//EN" "http://www.w3.org/Graphics/SVG/1.1/DTD/svg11.dtd">
<svg width="100%" height="100%" viewBox="0 0 1000 251" version="1.1" xmlns="http://www.w3.org/2000/svg" xmlns:xlink="http://www.w3.org/1999/xlink" xml:space="preserve" xmlns:serif="http://www.serif.com/" style="fill-rule:evenodd;clip-rule:evenodd;stroke-linejoin:round;stroke-miterlimit:2;">
    <g transform="matrix(1,0,0,1,-1050,-367)">
        <g id="letterhead" transform="matrix(1,0,0,0.25,0,367.23)">
            <rect x="1050" y="0" width="1000" height="1000" style="fill:none;"/>
            <g transform="matrix(1,0,0,4,-8.92783,-1628.2)">
                <g transform="matrix(1.35145,0,0,1.35145,-535.816,-89.5775)">
                    <g transform="matrix(0.614807,0,0,0.614807,1102.39,15.0179)">
                        <path d="M226.159,656.948L249.313,656.948L292.486,774.33L269.01,774.33L258.179,745.086L217.038,745.086L206.372,774.33L182.823,774.33L226.159,656.948ZM254.053,729.041L237.738,680.629L220.835,729.041L254.053,729.041Z" style="fill:rgb(0,72,97);fill-rule:nonzero;"/>
                        <path d="M351.044,775.232C342.48,775.232 334.711,773.566 327.739,770.235C320.767,766.903 314.754,762.399 309.701,756.723C304.647,751.047 300.76,744.654 298.04,737.545C295.32,730.436 293.96,723.109 293.96,715.564C293.96,707.739 295.403,700.284 298.288,693.2C301.173,686.116 305.198,679.791 310.362,674.225C315.526,668.659 321.606,664.263 328.603,661.036C335.601,657.81 343.241,656.197 351.524,656.197C360.089,656.197 367.856,657.893 374.828,661.284C381.799,664.676 387.784,669.238 392.784,674.969C397.783,680.7 401.642,687.105 404.362,694.184C407.081,701.263 408.441,708.52 408.441,715.954C408.441,723.73 407.026,731.16 404.196,738.244C401.367,745.328 397.37,751.653 392.205,757.219C387.04,762.785 380.972,767.179 374.001,770.4C367.03,773.621 359.377,775.232 351.044,775.232ZM316.984,715.714C316.984,720.77 317.762,725.659 319.318,730.381C320.874,735.102 323.117,739.301 326.047,742.978C328.978,746.654 332.562,749.574 336.801,751.737C341.04,753.9 345.868,754.982 351.284,754.982C356.821,754.982 361.721,753.858 365.985,751.609C370.249,749.361 373.819,746.344 376.694,742.557C379.569,738.77 381.742,734.53 383.213,729.839C384.684,725.148 385.419,720.39 385.419,715.564C385.419,710.508 384.641,705.647 383.085,700.981C381.529,696.315 379.27,692.128 376.309,688.42C373.348,684.712 369.751,681.805 365.518,679.698C361.285,677.591 356.515,676.537 351.209,676.537C345.673,676.537 340.785,677.646 336.546,679.863C332.306,682.08 328.737,685.058 325.837,688.796C322.937,692.534 320.736,696.733 319.235,701.394C317.735,706.055 316.984,710.829 316.984,715.714Z" style="fill:rgb(0,72,97);fill-rule:nonzero;"/>
                        <path d="M475.684,775.232C466.315,775.232 458.36,773.643 451.818,770.466C445.277,767.288 439.99,762.954 435.959,757.463C431.927,751.972 428.98,745.712 427.116,738.683C425.253,731.654 424.321,724.342 424.321,716.748L424.321,656.948L447.03,656.948L447.03,716.748C447.03,721.635 447.522,726.371 448.505,730.957C449.489,735.542 451.079,739.636 453.277,743.239C455.474,746.841 458.398,749.699 462.047,751.812C465.696,753.925 470.211,754.982 475.593,754.982C481.085,754.982 485.668,753.91 489.341,751.767C493.014,749.624 495.938,746.723 498.111,743.065C500.284,739.408 501.863,735.301 502.846,730.746C503.83,726.191 504.321,721.525 504.321,716.748L504.321,656.948L527.028,656.948L527.028,716.748C527.028,724.783 526.044,732.343 524.076,739.427C522.109,746.511 519.067,752.728 514.95,758.079C510.833,763.43 505.531,767.626 499.045,770.668C492.558,773.711 484.771,775.232 475.684,775.232Z" style="fill:rgb(0,72,97);fill-rule:nonzero;"/>
                        <path d="M724.877,687.772C724.15,686.924 722.759,685.859 720.704,684.575C718.648,683.291 716.169,682.02 713.264,680.763C710.36,679.506 707.195,678.432 703.77,677.542C700.344,676.652 696.868,676.206 693.341,676.206C687.136,676.206 682.456,677.343 679.301,679.618C676.146,681.892 674.569,685.134 674.569,689.345C674.569,692.539 675.571,695.076 677.577,696.954C679.582,698.832 682.574,700.418 686.551,701.713C690.528,703.008 695.472,704.432 701.383,705.986C709.141,707.947 715.847,710.271 721.501,712.955C727.155,715.64 731.505,719.154 734.553,723.496C737.6,727.839 739.124,733.612 739.124,740.815C739.124,747.082 737.962,752.431 735.639,756.862C733.316,761.294 730.126,764.897 726.069,767.672C722.013,770.447 717.369,772.469 712.139,773.736C706.909,775.004 701.387,775.637 695.573,775.637C689.771,775.637 683.932,775.028 678.057,773.81C672.182,772.591 666.561,770.857 661.193,768.606C655.825,766.355 650.862,763.61 646.303,760.37L656.471,740.722C657.439,741.752 659.191,743.065 661.728,744.659C664.264,746.254 667.336,747.848 670.943,749.441C674.55,751.034 678.51,752.386 682.822,753.497C687.134,754.607 691.52,755.163 695.979,755.163C702.168,755.163 706.844,754.119 710.008,752.033C713.172,749.947 714.753,746.951 714.753,743.047C714.753,739.584 713.495,736.84 710.979,734.816C708.463,732.792 704.931,731.035 700.383,729.545C695.835,728.055 690.495,726.478 684.364,724.812C676.926,722.68 670.73,720.305 665.777,717.687C660.823,715.068 657.133,711.793 654.706,707.861C652.28,703.93 651.067,698.977 651.067,693.003C651.067,684.962 652.985,678.202 656.821,672.723C660.657,667.244 665.833,663.095 672.35,660.276C678.866,657.457 686.073,656.047 693.969,656.047C699.459,656.047 704.665,656.66 709.587,657.886C714.509,659.112 719.115,660.717 723.406,662.701C727.697,664.685 731.545,666.832 734.952,669.141L724.877,687.772Z" style="fill:rgb(0,72,97);fill-rule:nonzero;"/>
                        <path d="M756.245,774.33L756.245,656.948L805.928,656.948C811.356,656.948 816.345,658.063 820.894,660.292C825.443,662.522 829.389,665.499 832.733,669.225C836.076,672.951 838.667,677.133 840.506,681.771C842.344,686.408 843.263,691.125 843.263,695.922C843.263,702.531 841.744,708.82 838.704,714.787C835.664,720.754 831.424,725.603 825.982,729.334C820.54,733.065 814.161,734.931 806.845,734.931L778.954,734.931L778.954,774.33L756.245,774.33ZM778.954,714.994L805.422,714.994C808.258,714.994 810.781,714.215 812.992,712.657C815.202,711.099 816.963,708.869 818.273,705.966C819.584,703.064 820.239,699.703 820.239,695.885C820.239,691.859 819.483,688.422 817.972,685.574C816.461,682.727 814.517,680.567 812.141,679.094C809.764,677.622 807.219,676.886 804.505,676.886L778.954,676.886L778.954,714.994Z" style="fill:rgb(0,72,97);fill-rule:nonzero;"/>
                        <path d="M957.894,656.948L957.894,774.33L935.187,774.33L935.187,724.285L881.952,724.285L881.952,774.33L859.243,774.33L859.243,656.948L881.952,656.948L881.952,704.348L935.187,704.348L935.187,656.948L957.894,656.948Z" style="fill:rgb(0,72,97);fill-rule:nonzero;"/>
                        <path d="M1063.9,754.393L1063.9,774.33L982.421,774.33L982.421,656.948L1062.41,656.948L1062.41,676.886L1005.13,676.886L1005.13,705.219L1054.59,705.219L1054.59,723.805L1005.13,723.805L1005.13,754.393L1063.9,754.393Z" style="fill:rgb(0,72,97);fill-rule:nonzero;"/>
                        <path d="M1081.85,774.33L1081.85,656.948L1133.75,656.948C1139.18,656.948 1144.16,658.061 1148.71,660.285C1153.26,662.509 1157.2,665.486 1160.55,669.218C1163.89,672.949 1166.49,677.133 1168.32,681.771C1170.16,686.408 1171.08,691.116 1171.08,695.893C1171.08,700.896 1170.22,705.673 1168.51,710.225C1166.79,714.777 1164.35,718.773 1161.18,722.215C1158.01,725.657 1154.27,728.312 1149.95,730.18L1176.75,774.33L1151.54,774.33L1127.51,734.931L1104.56,734.931L1104.56,774.33L1081.85,774.33ZM1104.56,714.994L1133.24,714.994C1136.08,714.994 1138.6,714.15 1140.81,712.462C1143.02,710.774 1144.78,708.479 1146.09,705.576C1147.4,702.674 1148.06,699.446 1148.06,695.893C1148.06,692.23 1147.3,688.975 1145.79,686.129C1144.28,683.282 1142.34,681.03 1139.96,679.372C1137.59,677.715 1135.04,676.886 1132.32,676.886L1104.56,676.886L1104.56,714.994Z" style="fill:rgb(0,72,97);fill-rule:nonzero;"/>
                        <path d="M1273.29,754.393L1273.29,774.33L1191.81,774.33L1191.81,656.948L1271.8,656.948L1271.8,676.886L1214.52,676.886L1214.52,705.219L1263.98,705.219L1263.98,723.805L1214.52,723.805L1214.52,754.393L1273.29,754.393Z" style="fill:rgb(0,72,97);fill-rule:nonzero;"/>
                    </g>
                    <g transform="matrix(0.0921033,0,0,0.0921033,1420.05,437.578)">
                        <path d="M732.058,-45.421C996.396,336.762 704,603.201 513.091,589.1C358.59,577.689 305.842,379.701 511.999,272.352C791.371,126.878 732.058,-45.421 732.058,-45.421Z" style="fill:rgb(0,92,136);"/>
                    </g>
                    <g transform="matrix(0.176318,0,0,0.176318,1377.41,388.192)">
                        <path d="M500,87.324C531.113,118.619 598.72,187.646 601.47,226.473C615.004,417.556 391.56,371.467 421.425,539.616C406.006,528.509 354.684,442.123 412.555,335.201C447.076,271.42 490.464,226.31 490.464,226.31C490.464,226.31 357.853,327.085 358.245,432.51C358.578,521.957 420.343,571.142 420.343,571.142C412.16,572.217 320.503,511.562 323.077,402.461C326.227,268.91 499.837,88.222 500,87.324Z" style="fill:rgb(60,148,27);"/>
                    </g>
                </g>
                <g transform="matrix(0.826597,0,0,0.75998,1045.14,-32.7659)">
                    <path d="M276.069,793.669C289.36,793.604 304.589,786.289 305.661,785.766C305.723,785.735 305.792,785.722 305.86,785.729C308.413,786.417 298.911,808.997 276.351,808.519C241.946,807.791 215.661,790.65 201.493,791.478C195.096,791.852 190.428,794.992 188.097,796.961C187.933,797.116 187.69,797.123 187.519,796.977C187.348,796.83 187.297,796.571 187.398,796.361C189.621,791.703 195.457,781.205 203.054,780.931C214.365,780.523 237.301,793.859 276.069,793.669Z" style="fill:url(#_Linear1);fill-rule:nonzero;"/>
                </g>
            </g>
        </g>
    </g>
    <defs>
        <linearGradient id="_Linear1" x1="0" y1="0" x2="1" y2="0" gradientUnits="userSpaceOnUse" gradientTransform="matrix(73.6458,38.1545,-35.0796,80.1013,197.846,764.935)"><stop offset="0" style="stop-color:rgb(60,148,27);stop-opacity:1"/><stop offset="1" style="stop-color:rgb(0,92,136);stop-opacity:1"/></linearGradient>
    </defs>
</svg>
