<?xml version="1.0" encoding="UTF-8" standalone="no"?>
<!DOCTYPE svg PUBLIC "-//W3C//DTD SVG 1.1//EN" "http://www.w3.org/Graphics/SVG/1.1/DTD/svg11.dtd">
<svg width="100%" height="100%" viewBox="0 0 1000 1000" version="1.1" xmlns="http://www.w3.org/2000/svg" xmlns:xlink="http://www.w3.org/1999/xlink" xml:space="preserve" xmlns:serif="http://www.serif.com/" style="fill-rule:evenodd;clip-rule:evenodd;stroke-linejoin:round;stroke-miterlimit:2;">
    <rect id="main" x="0" y="0" width="1000" height="1000" style="fill:none;"/>
    <g id="main1" serif:id="main">
        <g id="Layer1">
            <g transform="matrix(1,0,0,1,16.4196,9.49697)">
                <g transform="matrix(0.442603,0,0,0.442603,263.831,349.023)">
                    <path d="M732.058,-45.421C996.396,336.762 704,603.201 513.091,589.1C358.59,577.689 305.842,379.701 511.999,272.352C791.371,126.878 732.058,-45.421 732.058,-45.421Z" style="fill:rgb(0,92,136);"/>
                </g>
                <g transform="matrix(0.847296,0,0,0.847296,58.8903,111.699)">
                    <path d="M500,87.324C531.113,118.619 598.72,187.646 601.47,226.473C615.004,417.556 391.56,371.467 421.425,539.616C406.006,528.509 354.684,442.123 412.555,335.201C447.076,271.42 490.464,226.31 490.464,226.31C490.464,226.31 357.853,327.085 358.245,432.51C358.578,521.957 420.343,571.142 420.343,571.142C412.16,572.217 320.503,511.562 323.077,402.461C326.227,268.91 499.837,88.222 500,87.324Z" style="fill:rgb(60,148,27);"/>
                </g>
            </g>
            <g transform="matrix(1,0,0,1,0,-37.7241)">
                <g transform="matrix(0.614807,0,0,0.614807,52.3867,312.001)">
                    <path d="M226.159,656.948L249.313,656.948L292.486,774.33L269.01,774.33L258.179,745.086L217.038,745.086L206.372,774.33L182.823,774.33L226.159,656.948ZM254.053,729.041L237.738,680.629L220.835,729.041L254.053,729.041Z" style="fill:rgb(0,72,97);fill-rule:nonzero;"/>
                    <path d="M351.044,775.232C342.48,775.232 334.711,773.566 327.739,770.235C320.767,766.903 314.754,762.399 309.701,756.723C304.647,751.047 300.76,744.654 298.04,737.545C295.32,730.436 293.96,723.109 293.96,715.564C293.96,707.739 295.403,700.284 298.288,693.2C301.173,686.116 305.198,679.791 310.362,674.225C315.526,668.659 321.606,664.263 328.603,661.036C335.601,657.81 343.241,656.197 351.524,656.197C360.089,656.197 367.856,657.893 374.828,661.284C381.799,664.676 387.784,669.238 392.784,674.969C397.783,680.7 401.642,687.105 404.362,694.184C407.081,701.263 408.441,708.52 408.441,715.954C408.441,723.73 407.026,731.16 404.196,738.244C401.367,745.328 397.37,751.653 392.205,757.219C387.04,762.785 380.972,767.179 374.001,770.4C367.03,773.621 359.377,775.232 351.044,775.232ZM316.984,715.714C316.984,720.77 317.762,725.659 319.318,730.381C320.874,735.102 323.117,739.301 326.047,742.978C328.978,746.654 332.562,749.574 336.801,751.737C341.04,753.9 345.868,754.982 351.284,754.982C356.821,754.982 361.721,753.858 365.985,751.609C370.249,749.361 373.819,746.344 376.694,742.557C379.569,738.77 381.742,734.53 383.213,729.839C384.684,725.148 385.419,720.39 385.419,715.564C385.419,710.508 384.641,705.647 383.085,700.981C381.529,696.315 379.27,692.128 376.309,688.42C373.348,684.712 369.751,681.805 365.518,679.698C361.285,677.591 356.515,676.537 351.209,676.537C345.673,676.537 340.785,677.646 336.546,679.863C332.306,682.08 328.737,685.058 325.837,688.796C322.937,692.534 320.736,696.733 319.235,701.394C317.735,706.055 316.984,710.829 316.984,715.714Z" style="fill:rgb(0,72,97);fill-rule:nonzero;"/>
                    <path d="M475.684,775.232C466.315,775.232 458.36,773.643 451.818,770.466C445.277,767.288 439.99,762.954 435.959,757.463C431.927,751.972 428.98,745.712 427.116,738.683C425.253,731.654 424.321,724.342 424.321,716.748L424.321,656.948L447.03,656.948L447.03,716.748C447.03,721.635 447.522,726.371 448.505,730.957C449.489,735.542 451.079,739.636 453.277,743.239C455.474,746.841 458.398,749.699 462.047,751.812C465.696,753.925 470.211,754.982 475.593,754.982C481.085,754.982 485.668,753.91 489.341,751.767C493.014,749.624 495.938,746.723 498.111,743.065C500.284,739.408 501.863,735.301 502.846,730.746C503.83,726.191 504.321,721.525 504.321,716.748L504.321,656.948L527.028,656.948L527.028,716.748C527.028,724.783 526.044,732.343 524.076,739.427C522.109,746.511 519.067,752.728 514.95,758.079C510.833,763.43 505.531,767.626 499.045,770.668C492.558,773.711 484.771,775.232 475.684,775.232Z" style="fill:rgb(0,72,97);fill-rule:nonzero;"/>
                    <path d="M577.105,656.948L600.259,656.948L643.432,774.33L619.956,774.33L609.124,745.086L567.984,745.086L557.318,774.33L533.769,774.33L577.105,656.948ZM604.999,729.041L588.683,680.629L571.781,729.041L604.999,729.041Z" style="fill:rgb(0,72,97);fill-rule:nonzero;"/>
                    <path d="M724.877,687.772C724.15,686.924 722.759,685.859 720.704,684.575C718.648,683.291 716.169,682.02 713.264,680.763C710.36,679.506 707.195,678.432 703.77,677.542C700.344,676.652 696.868,676.206 693.341,676.206C687.136,676.206 682.456,677.343 679.301,679.618C676.146,681.892 674.569,685.134 674.569,689.345C674.569,692.539 675.571,695.076 677.577,696.954C679.582,698.832 682.574,700.418 686.551,701.713C690.528,703.008 695.472,704.432 701.383,705.986C709.141,707.947 715.847,710.271 721.501,712.955C727.155,715.64 731.505,719.154 734.553,723.496C737.6,727.839 739.124,733.612 739.124,740.815C739.124,747.082 737.962,752.431 735.639,756.862C733.316,761.294 730.126,764.897 726.069,767.672C722.013,770.447 717.369,772.469 712.139,773.736C706.909,775.004 701.387,775.637 695.573,775.637C689.771,775.637 683.932,775.028 678.057,773.81C672.182,772.591 666.561,770.857 661.193,768.606C655.825,766.355 650.862,763.61 646.303,760.37L656.471,740.722C657.439,741.752 659.191,743.065 661.728,744.659C664.264,746.254 667.336,747.848 670.943,749.441C674.55,751.034 678.51,752.386 682.822,753.497C687.134,754.607 691.52,755.163 695.979,755.163C702.168,755.163 706.844,754.119 710.008,752.033C713.172,749.947 714.753,746.951 714.753,743.047C714.753,739.584 713.495,736.84 710.979,734.816C708.463,732.792 704.931,731.035 700.383,729.545C695.835,728.055 690.495,726.478 684.364,724.812C676.926,722.68 670.73,720.305 665.777,717.687C660.823,715.068 657.133,711.793 654.706,707.861C652.28,703.93 651.067,698.977 651.067,693.003C651.067,684.962 652.985,678.202 656.821,672.723C660.657,667.244 665.833,663.095 672.35,660.276C678.866,657.457 686.073,656.047 693.969,656.047C699.459,656.047 704.665,656.66 709.587,657.886C714.509,659.112 719.115,660.717 723.406,662.701C727.697,664.685 731.545,666.832 734.952,669.141L724.877,687.772Z" style="fill:rgb(0,72,97);fill-rule:nonzero;"/>
                    <path d="M756.245,774.33L756.245,656.948L805.928,656.948C811.356,656.948 816.345,658.063 820.894,660.292C825.443,662.522 829.389,665.499 832.733,669.225C836.076,672.951 838.667,677.133 840.506,681.771C842.344,686.408 843.263,691.125 843.263,695.922C843.263,702.531 841.744,708.82 838.704,714.787C835.664,720.754 831.424,725.603 825.982,729.334C820.54,733.065 814.161,734.931 806.845,734.931L778.954,734.931L778.954,774.33L756.245,774.33ZM778.954,714.994L805.422,714.994C808.258,714.994 810.781,714.215 812.992,712.657C815.202,711.099 816.963,708.869 818.273,705.966C819.584,703.064 820.239,699.703 820.239,695.885C820.239,691.859 819.483,688.422 817.972,685.574C816.461,682.727 814.517,680.567 812.141,679.094C809.764,677.622 807.219,676.886 804.505,676.886L778.954,676.886L778.954,714.994Z" style="fill:rgb(0,72,97);fill-rule:nonzero;"/>
                    <path d="M957.894,656.948L957.894,774.33L935.187,774.33L935.187,724.285L881.952,724.285L881.952,774.33L859.243,774.33L859.243,656.948L881.952,656.948L881.952,704.348L935.187,704.348L935.187,656.948L957.894,656.948Z" style="fill:rgb(0,72,97);fill-rule:nonzero;"/>
                    <path d="M1063.9,754.393L1063.9,774.33L982.421,774.33L982.421,656.948L1062.41,656.948L1062.41,676.886L1005.13,676.886L1005.13,705.219L1054.59,705.219L1054.59,723.805L1005.13,723.805L1005.13,754.393L1063.9,754.393Z" style="fill:rgb(0,72,97);fill-rule:nonzero;"/>
                    <path d="M1081.85,774.33L1081.85,656.948L1133.75,656.948C1139.18,656.948 1144.16,658.061 1148.71,660.285C1153.26,662.509 1157.2,665.486 1160.55,669.218C1163.89,672.949 1166.49,677.133 1168.32,681.771C1170.16,686.408 1171.08,691.116 1171.08,695.893C1171.08,700.896 1170.22,705.673 1168.51,710.225C1166.79,714.777 1164.35,718.773 1161.18,722.215C1158.01,725.657 1154.27,728.312 1149.95,730.18L1176.75,774.33L1151.54,774.33L1127.51,734.931L1104.56,734.931L1104.56,774.33L1081.85,774.33ZM1104.56,714.994L1133.24,714.994C1136.08,714.994 1138.6,714.15 1140.81,712.462C1143.02,710.774 1144.78,708.479 1146.09,705.576C1147.4,702.674 1148.06,699.446 1148.06,695.893C1148.06,692.23 1147.3,688.975 1145.79,686.129C1144.28,683.282 1142.34,681.03 1139.96,679.372C1137.59,677.715 1135.04,676.886 1132.32,676.886L1104.56,676.886L1104.56,714.994Z" style="fill:rgb(0,72,97);fill-rule:nonzero;"/>
                    <path d="M1273.29,754.393L1273.29,774.33L1191.81,774.33L1191.81,656.948L1271.8,656.948L1271.8,676.886L1214.52,676.886L1214.52,705.219L1263.98,705.219L1263.98,723.805L1214.52,723.805L1214.52,754.393L1273.29,754.393Z" style="fill:rgb(0,72,97);fill-rule:nonzero;"/>
                </g>
                <g transform="matrix(0.628701,0,0,0.578034,116.054,328.613)">
                    <path d="M276.069,793.669C289.282,793.604 304.409,786.375 305.64,785.776C305.733,785.73 305.836,785.715 305.937,785.733C308.225,786.859 298.69,808.993 276.351,808.519C241.946,807.791 215.661,790.65 201.493,791.478C195.52,791.827 191.054,794.588 188.591,796.555C188.372,796.753 188.054,796.753 187.835,796.555C187.615,796.358 187.556,796.018 187.693,795.747C190.111,790.844 195.774,781.193 203.054,780.931C214.365,780.523 237.301,793.859 276.069,793.669Z" style="fill:url(#_Linear1);fill-rule:nonzero;"/>
                </g>
            </g>
            <g transform="matrix(0.273684,0,0,0.273684,115.496,592.556)">
                <path d="M294.026,774.33L294.026,690.714L259.439,754.163L248.6,754.163L213.884,690.714L213.884,774.33L195.262,774.33L195.262,656.948L215.173,656.948L253.955,728.636L292.9,656.948L312.648,656.948L312.648,774.33L294.026,774.33Z" style="fill:rgb(32,117,0);fill-rule:nonzero;"/>
                <path d="M372.899,656.948L390.527,656.948L436.191,774.33L416.683,774.33L404.257,742.402L358.875,742.402L346.615,774.33L327.07,774.33L372.899,656.948ZM400.558,728.69L381.713,677.245L362.244,728.69L400.558,728.69Z" style="fill:rgb(32,117,0);fill-rule:nonzero;"/>
                <path d="M450.613,774.33L450.613,656.948L501.655,656.948C506.954,656.948 511.812,658.041 516.23,660.225C520.647,662.41 524.489,665.329 527.757,668.982C531.025,672.636 533.559,676.736 535.358,681.284C537.158,685.831 538.058,690.455 538.058,695.154C538.058,700.366 537.115,705.325 535.23,710.031C533.346,714.738 530.682,718.806 527.239,722.234C523.797,725.663 519.75,728.17 515.098,729.754L542.752,774.33L521.895,774.33L496.432,733.492L469.236,733.492L469.236,774.33L450.613,774.33ZM469.236,717.055L501.5,717.055C504.984,717.055 508.046,716.062 510.685,714.076C513.324,712.091 515.403,709.426 516.921,706.083C518.439,702.739 519.198,699.096 519.198,695.154C519.198,691.102 518.319,687.432 516.56,684.145C514.802,680.857 512.521,678.242 509.717,676.298C506.914,674.355 503.856,673.383 500.544,673.383L469.236,673.383L469.236,717.055Z" style="fill:rgb(32,117,0);fill-rule:nonzero;"/>
                <rect x="559.874" y="656.948" width="18.622" height="117.382" style="fill:rgb(32,117,0);fill-rule:nonzero;"/>
                <path d="M623.514,691.347L623.514,774.33L604.892,774.33L604.892,656.948L620.166,656.948L686.604,741.787L686.604,657.078L705.227,657.078L705.227,774.33L689.068,774.33L623.514,691.347Z" style="fill:rgb(32,117,0);fill-rule:nonzero;"/>
                <path d="M812.165,757.896L812.165,774.33L731.622,774.33L731.622,656.948L810.677,656.948L810.677,673.383L750.245,673.383L750.245,706.774L802.625,706.774L802.625,722.134L750.245,722.134L750.245,757.896L812.165,757.896Z" style="fill:rgb(32,117,0);fill-rule:nonzero;"/>
                <path d="M872.189,774.33L872.189,656.948L923.231,656.948C928.53,656.948 933.388,658.041 937.805,660.225C942.223,662.41 946.065,665.329 949.333,668.982C952.601,672.636 955.134,676.736 956.934,681.284C958.734,685.831 959.634,690.455 959.634,695.154C959.634,700.366 958.691,705.325 956.806,710.031C954.921,714.738 952.258,718.806 948.815,722.234C945.372,725.663 941.325,728.17 936.674,729.754L964.327,774.33L943.47,774.33L918.007,733.492L890.811,733.492L890.811,774.33L872.189,774.33ZM890.811,717.055L923.076,717.055C926.56,717.055 929.621,716.062 932.26,714.076C934.9,712.091 936.978,709.426 938.496,706.083C940.014,702.739 940.773,699.096 940.773,695.154C940.773,691.102 939.894,687.432 938.136,684.145C936.378,680.857 934.097,678.242 931.293,676.298C928.489,674.355 925.432,673.383 922.12,673.383L890.811,673.383L890.811,717.055Z" style="fill:rgb(32,117,0);fill-rule:nonzero;"/>
                <path d="M1061.99,757.896L1061.99,774.33L981.45,774.33L981.45,656.948L1060.5,656.948L1060.5,673.383L1000.07,673.383L1000.07,706.774L1052.45,706.774L1052.45,722.134L1000.07,722.134L1000.07,757.896L1061.99,757.896Z" style="fill:rgb(32,117,0);fill-rule:nonzero;"/>
                <path d="M1150.59,684.542C1149.55,683.332 1147.97,682.046 1145.84,680.684C1143.7,679.323 1141.22,678.04 1138.4,676.834C1135.57,675.629 1132.49,674.626 1129.15,673.827C1125.82,673.028 1122.39,672.629 1118.86,672.629C1111.18,672.629 1105.46,674.064 1101.71,676.934C1097.96,679.804 1096.08,683.799 1096.08,688.918C1096.08,692.631 1097.14,695.569 1099.25,697.732C1101.35,699.895 1104.55,701.689 1108.84,703.113C1113.13,704.538 1118.53,706.052 1125.04,707.657C1133,709.517 1139.89,711.75 1145.7,714.357C1151.51,716.963 1155.98,720.412 1159.1,724.703C1162.23,728.993 1163.79,734.701 1163.79,741.825C1163.79,747.757 1162.67,752.86 1160.44,757.135C1158.21,761.41 1155.11,764.916 1151.16,767.653C1147.21,770.389 1142.63,772.391 1137.43,773.659C1132.22,774.926 1126.65,775.56 1120.7,775.56C1114.83,775.56 1109,774.938 1103.23,773.693C1097.46,772.449 1091.96,770.656 1086.75,768.315C1081.54,765.974 1076.69,763.079 1072.21,759.632L1080.78,743.68C1082.17,745.149 1084.2,746.74 1086.88,748.451C1089.56,750.163 1092.69,751.803 1096.29,753.37C1099.88,754.937 1103.8,756.23 1108.05,757.25C1112.3,758.269 1116.64,758.779 1121.07,758.779C1128.4,758.779 1134.03,757.49 1137.96,754.911C1141.89,752.332 1143.85,748.585 1143.85,743.67C1143.85,739.712 1142.57,736.56 1140.02,734.211C1137.47,731.863 1133.78,729.873 1128.96,728.24C1124.14,726.608 1118.36,724.934 1111.64,723.219C1103.94,721.162 1097.5,718.89 1092.31,716.401C1087.12,713.913 1083.25,710.722 1080.67,706.829C1078.1,702.936 1076.82,697.951 1076.82,691.874C1076.82,684.117 1078.68,677.578 1082.42,672.255C1086.15,666.933 1091.24,662.908 1097.69,660.179C1104.15,657.45 1111.36,656.086 1119.33,656.086C1124.72,656.086 1129.78,656.666 1134.52,657.828C1139.27,658.99 1143.7,660.562 1147.82,662.546C1151.94,664.53 1155.68,666.793 1159.03,669.335L1150.59,684.542Z" style="fill:rgb(32,117,0);fill-rule:nonzero;"/>
                <path d="M1230.91,775.193C1222.5,775.193 1214.88,773.534 1208.04,770.215C1201.19,766.897 1195.28,762.399 1190.31,756.723C1185.33,751.047 1181.5,744.654 1178.82,737.545C1176.14,730.436 1174.8,723.122 1174.8,715.603C1174.8,707.778 1176.22,700.317 1179.07,693.22C1181.92,686.123 1185.88,679.791 1190.97,674.225C1196.06,668.659 1202.03,664.256 1208.88,661.017C1215.73,657.778 1223.21,656.158 1231.31,656.158C1239.72,656.158 1247.35,657.86 1254.19,661.265C1261.03,664.67 1266.91,669.238 1271.83,674.969C1276.76,680.7 1280.56,687.099 1283.24,694.165C1285.92,701.231 1287.26,708.468 1287.26,715.877C1287.26,723.678 1285.86,731.127 1283.07,738.224C1280.28,745.321 1276.34,751.653 1271.26,757.219C1266.17,762.785 1260.2,767.172 1253.36,770.38C1246.52,773.589 1239.04,775.193 1230.91,775.193ZM1193.66,715.676C1193.66,721.198 1194.54,726.541 1196.29,731.703C1198.04,736.865 1200.53,741.447 1203.77,745.448C1207.02,749.45 1210.94,752.629 1215.56,754.986C1220.17,757.342 1225.36,758.521 1231.11,758.521C1237.04,758.521 1242.31,757.293 1246.94,754.838C1251.57,752.384 1255.48,749.1 1258.66,744.989C1261.85,740.877 1264.27,736.262 1265.92,731.143C1267.57,726.023 1268.4,720.844 1268.4,715.603C1268.4,710.08 1267.52,704.765 1265.77,699.658C1264.02,694.551 1261.5,689.975 1258.22,685.931C1254.93,681.887 1251,678.713 1246.41,676.412C1241.83,674.11 1236.72,672.959 1231.08,672.959C1225.15,672.959 1219.88,674.165 1215.26,676.577C1210.65,678.989 1206.74,682.239 1203.54,686.326C1200.35,690.414 1197.9,694.995 1196.2,700.07C1194.51,705.145 1193.66,710.347 1193.66,715.676Z" style="fill:rgb(32,117,0);fill-rule:nonzero;"/>
                <path d="M1355.47,775.193C1346.1,775.193 1338.19,773.585 1331.72,770.369C1325.26,767.153 1320.06,762.78 1316.12,757.25C1312.18,751.72 1309.3,745.434 1307.49,738.391C1305.68,731.348 1304.77,724.056 1304.77,716.515L1304.77,656.948L1323.4,656.948L1323.4,716.515C1323.4,721.842 1323.93,727.025 1325.01,732.065C1326.08,737.105 1327.83,741.608 1330.27,745.574C1332.7,749.54 1335.96,752.689 1340.07,755.022C1344.17,757.355 1349.26,758.521 1355.34,758.521C1361.54,758.521 1366.69,757.333 1370.8,754.956C1374.92,752.579 1378.18,749.381 1380.6,745.361C1383.02,741.34 1384.77,736.832 1385.84,731.835C1386.92,726.838 1387.45,721.731 1387.45,716.515L1387.45,656.948L1406.08,656.948L1406.08,716.515C1406.08,724.497 1405.13,732.037 1403.24,739.135C1401.35,746.233 1398.39,752.47 1394.35,757.847C1390.31,763.223 1385.09,767.458 1378.68,770.552C1372.27,773.646 1364.53,775.193 1355.47,775.193Z" style="fill:rgb(32,117,0);fill-rule:nonzero;"/>
                <path d="M1430.82,774.33L1430.82,656.948L1481.86,656.948C1487.16,656.948 1492.02,658.041 1496.44,660.225C1500.85,662.41 1504.7,665.329 1507.96,668.982C1511.23,672.636 1513.77,676.736 1515.57,681.284C1517.37,685.831 1518.27,690.455 1518.27,695.154C1518.27,700.366 1517.32,705.325 1515.44,710.031C1513.55,714.738 1510.89,718.806 1507.45,722.234C1504,725.663 1499.96,728.17 1495.31,729.754L1522.96,774.33L1502.1,774.33L1476.64,733.492L1449.44,733.492L1449.44,774.33L1430.82,774.33ZM1449.44,717.055L1481.71,717.055C1485.19,717.055 1488.25,716.062 1490.89,714.076C1493.53,712.091 1495.61,709.426 1497.13,706.083C1498.65,702.739 1499.4,699.096 1499.4,695.154C1499.4,691.102 1498.53,687.432 1496.77,684.145C1495.01,680.857 1492.73,678.242 1489.92,676.298C1487.12,674.355 1484.06,673.383 1480.75,673.383L1449.44,673.383L1449.44,717.055Z" style="fill:rgb(32,117,0);fill-rule:nonzero;"/>
                <path d="M1532.39,714.777C1532.39,707.612 1533.66,700.586 1536.19,693.697C1538.71,686.809 1542.42,680.532 1547.29,674.868C1552.17,669.204 1558.13,664.691 1565.18,661.33C1572.24,657.968 1580.23,656.287 1589.16,656.287C1599.8,656.287 1608.96,658.672 1616.65,663.443C1624.33,668.213 1630.04,674.37 1633.78,681.913L1619.26,691.657C1617.13,686.935 1614.37,683.202 1610.98,680.46C1607.59,677.717 1603.93,675.781 1600.02,674.653C1596.1,673.524 1592.26,672.959 1588.5,672.959C1582.41,672.959 1577.03,674.193 1572.37,676.66C1567.71,679.127 1563.81,682.41 1560.67,686.51C1557.52,690.609 1555.17,695.191 1553.6,700.254C1552.04,705.317 1551.25,710.402 1551.25,715.51C1551.25,721.143 1552.18,726.569 1554.05,731.786C1555.91,737.003 1558.51,741.612 1561.86,745.614C1565.22,749.615 1569.2,752.788 1573.82,755.133C1578.43,757.478 1583.48,758.65 1588.97,758.65C1592.81,758.65 1596.75,757.987 1600.78,756.661C1604.82,755.335 1608.58,753.258 1612.07,750.429C1615.55,747.6 1618.3,743.904 1620.32,739.34L1635.71,748.043C1633.31,753.861 1629.54,758.808 1624.4,762.887C1619.26,766.965 1613.51,770.057 1607.15,772.163C1600.79,774.269 1594.51,775.322 1588.31,775.322C1580.12,775.322 1572.61,773.586 1565.78,770.114C1558.95,766.643 1553.04,762.013 1548.07,756.227C1543.09,750.441 1539.24,743.938 1536.5,736.718C1533.76,729.499 1532.39,722.185 1532.39,714.777Z" style="fill:rgb(32,117,0);fill-rule:nonzero;"/>
                <path d="M1733.37,757.896L1733.37,774.33L1652.82,774.33L1652.82,656.948L1731.88,656.948L1731.88,673.383L1671.45,673.383L1671.45,706.774L1723.83,706.774L1723.83,722.134L1671.45,722.134L1671.45,757.896L1733.37,757.896Z" style="fill:rgb(32,117,0);fill-rule:nonzero;"/>
                <path d="M1821.97,684.542C1820.93,683.332 1819.34,682.046 1817.21,680.684C1815.08,679.323 1812.6,678.04 1809.77,676.834C1806.94,675.629 1803.86,674.626 1800.53,673.827C1797.19,673.028 1793.76,672.629 1790.24,672.629C1782.55,672.629 1776.84,674.064 1773.08,676.934C1769.33,679.804 1767.46,683.799 1767.46,688.918C1767.46,692.631 1768.51,695.569 1770.62,697.732C1772.73,699.895 1775.93,701.689 1780.22,703.113C1784.51,704.538 1789.9,706.052 1796.41,707.657C1804.38,709.517 1811.26,711.75 1817.07,714.357C1822.88,716.963 1827.35,720.412 1830.48,724.703C1833.6,728.993 1835.16,734.701 1835.16,741.825C1835.16,747.757 1834.05,752.86 1831.81,757.135C1829.58,761.41 1826.49,764.916 1822.54,767.653C1818.58,770.389 1814.01,772.391 1808.8,773.659C1803.6,774.926 1798.02,775.56 1792.08,775.56C1786.2,775.56 1780.38,774.938 1774.6,773.693C1768.83,772.449 1763.34,770.656 1758.13,768.315C1752.91,765.974 1748.07,763.079 1743.59,759.632L1752.16,743.68C1753.54,745.149 1755.57,746.74 1758.25,748.451C1760.93,750.163 1764.07,751.803 1767.66,753.37C1771.26,754.937 1775.18,756.23 1779.43,757.25C1783.67,758.269 1788.01,758.779 1792.45,758.779C1799.78,758.779 1805.41,757.49 1809.33,754.911C1813.26,752.332 1815.23,748.585 1815.23,743.67C1815.23,739.712 1813.95,736.56 1811.39,734.211C1808.84,731.863 1805.15,729.873 1800.33,728.24C1795.51,726.608 1789.74,724.934 1783.01,723.219C1775.31,721.162 1768.87,718.89 1763.68,716.401C1758.5,713.913 1754.62,710.722 1752.05,706.829C1749.48,702.936 1748.19,697.951 1748.19,691.874C1748.19,684.117 1750.06,677.578 1753.79,672.255C1757.53,666.933 1762.62,662.908 1769.07,660.179C1775.52,657.45 1782.73,656.086 1790.71,656.086C1796.1,656.086 1801.16,656.666 1805.9,657.828C1810.64,658.99 1815.07,660.562 1819.19,662.546C1823.31,664.53 1827.05,666.793 1830.41,669.335L1821.97,684.542Z" style="fill:rgb(32,117,0);fill-rule:nonzero;"/>
                <path d="M1963.76,684.542C1962.73,683.332 1961.14,682.046 1959.01,680.684C1956.88,679.323 1954.4,678.04 1951.57,676.834C1948.74,675.629 1945.66,674.626 1942.33,673.827C1938.99,673.028 1935.56,672.629 1932.03,672.629C1924.35,672.629 1918.63,674.064 1914.88,676.934C1911.13,679.804 1909.25,683.799 1909.25,688.918C1909.25,692.631 1910.31,695.569 1912.42,697.732C1914.53,699.895 1917.73,701.689 1922.01,703.113C1926.3,704.538 1931.7,706.052 1938.21,707.657C1946.17,709.517 1953.06,711.75 1958.87,714.357C1964.68,716.963 1969.15,720.412 1972.27,724.703C1975.4,728.993 1976.96,734.701 1976.96,741.825C1976.96,747.757 1975.84,752.86 1973.61,757.135C1971.38,761.41 1968.29,764.916 1964.33,767.653C1960.38,770.389 1955.8,772.391 1950.6,773.659C1945.39,774.926 1939.82,775.56 1933.88,775.56C1928,775.56 1922.17,774.938 1916.4,773.693C1910.63,772.449 1905.14,770.656 1899.92,768.315C1894.71,765.974 1889.87,763.079 1885.38,759.632L1893.96,743.68C1895.34,745.149 1897.37,746.74 1900.05,748.451C1902.73,750.163 1905.87,751.803 1909.46,753.37C1913.06,754.937 1916.98,756.23 1921.22,757.25C1925.47,758.269 1929.81,758.779 1934.25,758.779C1941.58,758.779 1947.2,757.49 1951.13,754.911C1955.06,752.332 1957.02,748.585 1957.02,743.67C1957.02,739.712 1955.75,736.56 1953.19,734.211C1950.64,731.863 1946.95,729.873 1942.13,728.24C1937.31,726.608 1931.54,724.934 1924.81,723.219C1917.11,721.162 1910.67,718.89 1905.48,716.401C1900.3,713.913 1896.42,710.722 1893.85,706.829C1891.28,702.936 1889.99,697.951 1889.99,691.874C1889.99,684.117 1891.86,677.578 1895.59,672.255C1899.32,666.933 1904.42,662.908 1910.87,660.179C1917.32,657.45 1924.53,656.086 1932.51,656.086C1937.89,656.086 1942.96,656.666 1947.7,657.828C1952.44,658.99 1956.87,660.562 1960.99,662.546C1965.11,664.53 1968.85,666.793 1972.21,669.335L1963.76,684.542Z" style="fill:rgb(32,117,0);fill-rule:nonzero;"/>
                <path d="M1995.33,774.33L1995.33,656.948L2036.96,656.948C2049.62,656.948 2060.2,659.566 2068.7,664.801C2077.21,670.037 2083.58,677.091 2087.83,685.963C2092.08,694.836 2094.2,704.673 2094.2,715.474C2094.2,727.378 2091.86,737.738 2087.17,746.555C2082.48,755.373 2075.85,762.206 2067.28,767.056C2058.71,771.905 2048.61,774.33 2036.96,774.33L1995.33,774.33ZM2075.34,715.474C2075.34,707.251 2073.84,699.966 2070.84,693.62C2067.84,687.274 2063.49,682.314 2057.79,678.742C2052.1,675.169 2045.15,673.383 2036.96,673.383L2013.95,673.383L2013.95,757.896L2036.96,757.896C2045.26,757.896 2052.26,756.033 2057.94,752.307C2063.63,748.581 2067.95,743.511 2070.91,737.098C2073.87,730.685 2075.34,723.477 2075.34,715.474Z" style="fill:rgb(32,117,0);fill-rule:nonzero;"/>
                <path d="M2132.32,691.347L2132.32,774.33L2113.7,774.33L2113.7,656.948L2128.98,656.948L2195.41,741.787L2195.41,657.078L2214.04,657.078L2214.04,774.33L2197.88,774.33L2132.32,691.347Z" style="fill:rgb(32,117,0);fill-rule:nonzero;"/>
                <path d="M2373.47,744.112C2373.47,750.387 2371.85,755.772 2368.61,760.267C2365.37,764.762 2361.01,768.229 2355.52,770.67C2350.03,773.11 2344,774.33 2337.4,774.33L2281.26,774.33L2281.26,656.948L2341.72,656.948C2347.24,656.948 2352,658.409 2356.03,661.33C2360.05,664.25 2363.14,668.004 2365.28,672.59C2367.43,677.176 2368.51,681.949 2368.51,686.909C2368.51,692.568 2367.06,697.911 2364.16,702.938C2361.27,707.965 2357.09,711.703 2351.64,714.151C2358.37,716.135 2363.69,719.758 2367.6,725.02C2371.51,730.282 2373.47,736.646 2373.47,744.112ZM2354.61,740.611C2354.61,737.331 2353.9,734.32 2352.5,731.578C2351.09,728.836 2349.2,726.635 2346.82,724.975C2344.44,723.315 2341.68,722.485 2338.56,722.485L2299.89,722.485L2299.89,758.368L2337.4,758.368C2340.64,758.368 2343.55,757.55 2346.15,755.914C2348.75,754.278 2350.81,752.117 2352.33,749.431C2353.85,746.744 2354.61,743.804 2354.61,740.611ZM2299.89,672.983L2299.89,707.6L2333.93,707.6C2337.01,707.6 2339.75,706.855 2342.15,705.365C2344.55,703.874 2346.48,701.819 2347.92,699.2C2349.37,696.58 2350.09,693.626 2350.09,690.337C2350.09,686.923 2349.43,683.935 2348.11,681.37C2346.78,678.806 2344.98,676.767 2342.7,675.253C2340.42,673.739 2337.83,672.983 2334.92,672.983L2299.89,672.983Z" style="fill:rgb(32,117,0);fill-rule:nonzero;"/>
                <path d="M2489.31,656.948L2489.31,774.33L2470.68,774.33L2470.68,722.534L2411.5,722.534L2411.5,774.33L2392.87,774.33L2392.87,656.948L2411.5,656.948L2411.5,706.099L2470.68,706.099L2470.68,656.948L2489.31,656.948Z" style="fill:rgb(32,117,0);fill-rule:nonzero;"/>
                <path d="M2515.7,774.33L2515.7,656.948L2557.33,656.948C2569.99,656.948 2580.58,659.566 2589.08,664.801C2597.58,670.037 2603.95,677.091 2608.2,685.963C2612.45,694.836 2614.57,704.673 2614.57,715.474C2614.57,727.378 2612.23,737.738 2607.54,746.555C2602.85,755.373 2596.22,762.206 2587.66,767.056C2579.09,771.905 2568.98,774.33 2557.33,774.33L2515.7,774.33ZM2595.72,715.474C2595.72,707.251 2594.22,699.966 2591.21,693.62C2588.21,687.274 2583.86,682.314 2578.16,678.742C2572.47,675.169 2565.53,673.383 2557.33,673.383L2534.32,673.383L2534.32,757.896L2557.33,757.896C2565.64,757.896 2572.63,756.033 2578.31,752.307C2584,748.581 2588.32,743.511 2591.28,737.098C2594.24,730.685 2595.72,723.477 2595.72,715.474Z" style="fill:rgb(32,117,0);fill-rule:nonzero;"/>
            </g>
        </g>
    </g>
    <defs>
        <linearGradient id="_Linear1" x1="0" y1="0" x2="1" y2="0" gradientUnits="userSpaceOnUse" gradientTransform="matrix(73.6458,38.1545,-35.0796,80.1013,197.846,764.935)"><stop offset="0" style="stop-color:rgb(60,148,27);stop-opacity:1"/><stop offset="1" style="stop-color:rgb(0,92,136);stop-opacity:1"/></linearGradient>
    </defs>
</svg>
